<svg xmlns="http://www.w3.org/2000/svg" viewBox="0 0 720 440" font-family="sans-serif" font-size="11">
<rect width="720" height="440" fill="#ffffff"/>
<text x="82" y="27.0" fill="#1f2937" text-anchor="end">72.3 MB</text>
<text x="82" y="117.0" fill="#1f2937" text-anchor="end">63.3 MB</text>
<text x="82" y="207.0" fill="#1f2937" text-anchor="end">55.4 MB</text>
<text x="82" y="297.0" fill="#1f2937" text-anchor="end">48.5 MB</text>
<text x="82" y="387.0" fill="#1f2937" text-anchor="end">42.4 MB</text>
<text x="90.0" y="398" fill="#1f2937" text-anchor="middle">558 ms</text>
<text x="241.5" y="398" fill="#1f2937" text-anchor="middle">1.50 s</text>
<text x="393.0" y="398" fill="#1f2937" text-anchor="middle">2.44 s</text>
<text x="544.5" y="398" fill="#1f2937" text-anchor="middle">3.38 s</text>
<text x="696.0" y="398" fill="#1f2937" text-anchor="middle">4.32 s</text>
<line x1="90" y1="24.0" x2="696" y2="24.0" stroke="#d1d5db" stroke-width="1"/>
<line x1="90" y1="114.0" x2="696" y2="114.0" stroke="#d1d5db" stroke-width="1"/>
<line x1="90" y1="204.0" x2="696" y2="204.0" stroke="#d1d5db" stroke-width="1"/>
<line x1="90" y1="294.0" x2="696" y2="294.0" stroke="#d1d5db" stroke-width="1"/>
<line x1="90" y1="384.0" x2="696" y2="384.0" stroke="#d1d5db" stroke-width="1"/>
<text x="393.0" y="428" fill="#1f2937" text-anchor="middle">time (median, seconds)</text>
<text x="14" y="204.0" fill="#1f2937" text-anchor="middle" transform="rotate(-90 14 204.0)">compressed size (bytes)</text>
<polyline points="90.0,373.6 105.4,378.2 134.4,384.0 157.0,382.4 234.7,373.4 385.7,376.5 542.2,379.6 694.7,382.9 696.0,382.9" fill="none" stroke="#2563eb" stroke-width="2"/>
<circle cx="90.0" cy="373.6" r="3" fill="#2563eb"/>
<text x="94.0" y="369.6" fill="#1f2937" font-size="9">1</text>
<circle cx="105.4" cy="378.2" r="3" fill="#2563eb"/>
<text x="109.4" y="374.2" fill="#1f2937" font-size="9">2</text>
<circle cx="134.4" cy="384.0" r="3" fill="#2563eb"/>
<text x="138.4" y="380.0" fill="#1f2937" font-size="9">3</text>
<circle cx="157.0" cy="382.4" r="3" fill="#2563eb"/>
<text x="161.0" y="378.4" fill="#1f2937" font-size="9">4</text>
<circle cx="234.7" cy="373.4" r="3" fill="#2563eb"/>
<text x="238.7" y="369.4" fill="#1f2937" font-size="9">5</text>
<circle cx="385.7" cy="376.5" r="3" fill="#2563eb"/>
<text x="389.7" y="372.5" fill="#1f2937" font-size="9">6</text>
<circle cx="542.2" cy="379.6" r="3" fill="#2563eb"/>
<text x="546.2" y="375.6" fill="#1f2937" font-size="9">7</text>
<circle cx="694.7" cy="382.9" r="3" fill="#2563eb"/>
<text x="698.7" y="378.9" fill="#1f2937" font-size="9">8</text>
<circle cx="696.0" cy="382.9" r="3" fill="#2563eb"/>
<text x="700.0" y="378.9" fill="#1f2937" font-size="9">9</text>
<polyline points="149.1,24.0 148.9,24.0 148.6,24.0 152.5,24.0 152.6,24.0 152.6,24.0 153.6,24.0 152.3,24.0 154.2,24.0" fill="none" stroke="#dc2626" stroke-width="2"/>
<circle cx="149.1" cy="24.0" r="3" fill="#dc2626"/>
<text x="153.1" y="20.0" fill="#1f2937" font-size="9">1</text>
<circle cx="148.9" cy="24.0" r="3" fill="#dc2626"/>
<text x="152.9" y="20.0" fill="#1f2937" font-size="9">2</text>
<circle cx="148.6" cy="24.0" r="3" fill="#dc2626"/>
<text x="152.6" y="20.0" fill="#1f2937" font-size="9">3</text>
<circle cx="152.5" cy="24.0" r="3" fill="#dc2626"/>
<text x="156.5" y="20.0" fill="#1f2937" font-size="9">4</text>
<circle cx="152.6" cy="24.0" r="3" fill="#dc2626"/>
<text x="156.6" y="20.0" fill="#1f2937" font-size="9">5</text>
<circle cx="152.6" cy="24.0" r="3" fill="#dc2626"/>
<text x="156.6" y="20.0" fill="#1f2937" font-size="9">6</text>
<circle cx="153.6" cy="24.0" r="3" fill="#dc2626"/>
<text x="157.6" y="20.0" fill="#1f2937" font-size="9">7</text>
<circle cx="152.3" cy="24.0" r="3" fill="#dc2626"/>
<text x="156.3" y="20.0" fill="#1f2937" font-size="9">8</text>
<circle cx="154.2" cy="24.0" r="3" fill="#dc2626"/>
<text x="158.2" y="20.0" fill="#1f2937" font-size="9">9</text>
<polyline points="101.4,360.5 109.0,365.4 144.6,372.7 148.0,363.7 223.2,369.9 274.8,374.1 274.7,374.1 275.1,374.1 275.7,374.1" fill="none" stroke="#d97706" stroke-width="2"/>
<circle cx="101.4" cy="360.5" r="3" fill="#d97706"/>
<text x="105.4" y="356.5" fill="#1f2937" font-size="9">1</text>
<circle cx="109.0" cy="365.4" r="3" fill="#d97706"/>
<text x="113.0" y="361.4" fill="#1f2937" font-size="9">2</text>
<circle cx="144.6" cy="372.7" r="3" fill="#d97706"/>
<text x="148.6" y="368.7" fill="#1f2937" font-size="9">3</text>
<circle cx="148.0" cy="363.7" r="3" fill="#d97706"/>
<text x="152.0" y="359.7" fill="#1f2937" font-size="9">4</text>
<circle cx="223.2" cy="369.9" r="3" fill="#d97706"/>
<text x="227.2" y="365.9" fill="#1f2937" font-size="9">5</text>
<circle cx="274.8" cy="374.1" r="3" fill="#d97706"/>
<text x="278.8" y="370.1" fill="#1f2937" font-size="9">6</text>
<circle cx="274.7" cy="374.1" r="3" fill="#d97706"/>
<text x="278.7" y="370.1" fill="#1f2937" font-size="9">7</text>
<circle cx="275.1" cy="374.1" r="3" fill="#d97706"/>
<text x="279.1" y="370.1" fill="#1f2937" font-size="9">8</text>
<circle cx="275.7" cy="374.1" r="3" fill="#d97706"/>
<text x="279.7" y="370.1" fill="#1f2937" font-size="9">9</text>
<circle cx="600" cy="28.0" r="4" fill="#2563eb"/>
<text x="610" y="32.0" fill="#1f2937">mixed</text>
<circle cx="600" cy="44.0" r="4" fill="#dc2626"/>
<text x="610" y="48.0" fill="#1f2937">grain</text>
<circle cx="600" cy="60.0" r="4" fill="#d97706"/>
<text x="610" y="64.0" fill="#1f2937">detail</text>
</svg>