<svg xmlns="http://www.w3.org/2000/svg" viewBox="0 0 720 440" font-family="sans-serif" font-size="11">
<rect width="720" height="440" fill="#111827"/>
<line x1="90" y1="24.0" x2="696" y2="24.0" stroke="#374151" stroke-width="1"/>
<line x1="90" y1="114.0" x2="696" y2="114.0" stroke="#374151" stroke-width="1"/>
<line x1="90" y1="204.0" x2="696" y2="204.0" stroke="#374151" stroke-width="1"/>
<line x1="90" y1="294.0" x2="696" y2="294.0" stroke="#374151" stroke-width="1"/>
<line x1="90" y1="384.0" x2="696" y2="384.0" stroke="#374151" stroke-width="1"/>
<text x="393.0" y="428" fill="#e5e7eb" text-anchor="middle">time (median, seconds)</text>
<text x="14" y="204.0" fill="#e5e7eb" text-anchor="middle" transform="rotate(-90 14 204.0)">compressed size (bytes)</text>
<polyline points="170.2,231.0 192.9,233.9 224.6,242.2 233.6,243.8 440.0,233.6 641.8,234.1 671.4,234.2 695.5,234.1 696.0,234.1" fill="none" stroke="#60a5fa" stroke-width="2"/>
<circle cx="170.2" cy="231.0" r="3" fill="#60a5fa"/>
<text x="174.2" y="227.0" fill="#e5e7eb" font-size="9">1</text>
<circle cx="192.9" cy="233.9" r="3" fill="#60a5fa"/>
<text x="196.9" y="229.9" fill="#e5e7eb" font-size="9">2</text>
<circle cx="224.6" cy="242.2" r="3" fill="#60a5fa"/>
<text x="228.6" y="238.2" fill="#e5e7eb" font-size="9">3</text>
<circle cx="233.6" cy="243.8" r="3" fill="#60a5fa"/>
<text x="237.6" y="239.8" fill="#e5e7eb" font-size="9">4</text>
<circle cx="440.0" cy="233.6" r="3" fill="#60a5fa"/>
<text x="444.0" y="229.6" fill="#e5e7eb" font-size="9">5</text>
<circle cx="641.8" cy="234.1" r="3" fill="#60a5fa"/>
<text x="645.8" y="230.1" fill="#e5e7eb" font-size="9">6</text>
<circle cx="671.4" cy="234.2" r="3" fill="#60a5fa"/>
<text x="675.4" y="230.2" fill="#e5e7eb" font-size="9">7</text>
<circle cx="695.5" cy="234.1" r="3" fill="#60a5fa"/>
<text x="699.5" y="230.1" fill="#e5e7eb" font-size="9">8</text>
<circle cx="696.0" cy="234.1" r="3" fill="#60a5fa"/>
<text x="700.0" y="230.1" fill="#e5e7eb" font-size="9">9</text>
<circle cx="600" cy="28" r="4" fill="#60a5fa"/>
<text x="610" y="32" fill="#e5e7eb">smooth</text>
<polyline points="302.2,24.0 302.8,24.0 300.9,24.0 308.1,24.0 308.8,24.0 307.4,24.0 316.8,24.0 318.0,24.0 316.2,24.0" fill="none" stroke="#f87171" stroke-width="2"/>
<circle cx="302.2" cy="24.0" r="3" fill="#f87171"/>
<text x="306.2" y="20.0" fill="#e5e7eb" font-size="9">1</text>
<circle cx="302.8" cy="24.0" r="3" fill="#f87171"/>
<text x="306.8" y="20.0" fill="#e5e7eb" font-size="9">2</text>
<circle cx="300.9" cy="24.0" r="3" fill="#f87171"/>
<text x="304.9" y="20.0" fill="#e5e7eb" font-size="9">3</text>
<circle cx="308.1" cy="24.0" r="3" fill="#f87171"/>
<text x="312.1" y="20.0" fill="#e5e7eb" font-size="9">4</text>
<circle cx="308.8" cy="24.0" r="3" fill="#f87171"/>
<text x="312.8" y="20.0" fill="#e5e7eb" font-size="9">5</text>
<circle cx="307.4" cy="24.0" r="3" fill="#f87171"/>
<text x="311.4" y="20.0" fill="#e5e7eb" font-size="9">6</text>
<circle cx="316.8" cy="24.0" r="3" fill="#f87171"/>
<text x="320.8" y="20.0" fill="#e5e7eb" font-size="9">7</text>
<circle cx="318.0" cy="24.0" r="3" fill="#f87171"/>
<text x="322.0" y="20.0" fill="#e5e7eb" font-size="9">8</text>
<circle cx="316.2" cy="24.0" r="3" fill="#f87171"/>
<text x="320.2" y="20.0" fill="#e5e7eb" font-size="9">9</text>
<circle cx="600" cy="44" r="4" fill="#f87171"/>
<text x="610" y="48" fill="#e5e7eb">grain</text>
<polyline points="90.1,382.2 90.1,382.2 90.2,382.2 106.8,383.7 109.5,383.7 107.7,383.8 108.2,383.8 118.8,383.9 146.3,384.0" fill="none" stroke="#4ade80" stroke-width="2"/>
<circle cx="90.1" cy="382.2" r="3" fill="#4ade80"/>
<text x="94.1" y="378.2" fill="#e5e7eb" font-size="9">1</text>
<circle cx="90.1" cy="382.2" r="3" fill="#4ade80"/>
<text x="94.1" y="378.2" fill="#e5e7eb" font-size="9">2</text>
<circle cx="90.2" cy="382.2" r="3" fill="#4ade80"/>
<text x="94.2" y="378.2" fill="#e5e7eb" font-size="9">3</text>
<circle cx="106.8" cy="383.7" r="3" fill="#4ade80"/>
<text x="110.8" y="379.7" fill="#e5e7eb" font-size="9">4</text>
<circle cx="109.5" cy="383.7" r="3" fill="#4ade80"/>
<text x="113.5" y="379.7" fill="#e5e7eb" font-size="9">5</text>
<circle cx="107.7" cy="383.8" r="3" fill="#4ade80"/>
<text x="111.7" y="379.8" fill="#e5e7eb" font-size="9">6</text>
<circle cx="108.2" cy="383.8" r="3" fill="#4ade80"/>
<text x="112.2" y="379.8" fill="#e5e7eb" font-size="9">7</text>
<circle cx="118.8" cy="383.9" r="3" fill="#4ade80"/>
<text x="122.8" y="379.9" fill="#e5e7eb" font-size="9">8</text>
<circle cx="146.3" cy="384.0" r="3" fill="#4ade80"/>
<text x="150.3" y="380.0" fill="#e5e7eb" font-size="9">9</text>
<circle cx="600" cy="60" r="4" fill="#4ade80"/>
<text x="610" y="64" fill="#e5e7eb">flat</text>
<polyline points="228.1,171.9 246.0,173.9 290.3,177.5 301.0,175.4 478.0,175.9 685.3,179.1 684.3,179.1 684.1,179.1 684.7,179.1" fill="none" stroke="#fbbf24" stroke-width="2"/>
<circle cx="228.1" cy="171.9" r="3" fill="#fbbf24"/>
<text x="232.1" y="167.9" fill="#e5e7eb" font-size="9">1</text>
<circle cx="246.0" cy="173.9" r="3" fill="#fbbf24"/>
<text x="250.0" y="169.9" fill="#e5e7eb" font-size="9">2</text>
<circle cx="290.3" cy="177.5" r="3" fill="#fbbf24"/>
<text x="294.3" y="173.5" fill="#e5e7eb" font-size="9">3</text>
<circle cx="301.0" cy="175.4" r="3" fill="#fbbf24"/>
<text x="305.0" y="171.4" fill="#e5e7eb" font-size="9">4</text>
<circle cx="478.0" cy="175.9" r="3" fill="#fbbf24"/>
<text x="482.0" y="171.9" fill="#e5e7eb" font-size="9">5</text>
<circle cx="685.3" cy="179.1" r="3" fill="#fbbf24"/>
<text x="689.3" y="175.1" fill="#e5e7eb" font-size="9">6</text>
<circle cx="684.3" cy="179.1" r="3" fill="#fbbf24"/>
<text x="688.3" y="175.1" fill="#e5e7eb" font-size="9">7</text>
<circle cx="684.1" cy="179.1" r="3" fill="#fbbf24"/>
<text x="688.1" y="175.1" fill="#e5e7eb" font-size="9">8</text>
<circle cx="684.7" cy="179.1" r="3" fill="#fbbf24"/>
<text x="688.7" y="175.1" fill="#e5e7eb" font-size="9">9</text>
<circle cx="600" cy="76" r="4" fill="#fbbf24"/>
<text x="610" y="80" fill="#e5e7eb">detail</text>
<polyline points="90.0,381.5 90.0,381.5 90.1,381.5 105.4,382.5 105.4,382.5 105.4,382.5 105.5,382.5 106.2,382.5 107.1,382.5" fill="none" stroke="#a78bfa" stroke-width="2"/>
<circle cx="90.0" cy="381.5" r="3" fill="#a78bfa"/>
<text x="94.0" y="377.5" fill="#e5e7eb" font-size="9">1</text>
<circle cx="90.0" cy="381.5" r="3" fill="#a78bfa"/>
<text x="94.0" y="377.5" fill="#e5e7eb" font-size="9">2</text>
<circle cx="90.1" cy="381.5" r="3" fill="#a78bfa"/>
<text x="94.1" y="377.5" fill="#e5e7eb" font-size="9">3</text>
<circle cx="105.4" cy="382.5" r="3" fill="#a78bfa"/>
<text x="109.4" y="378.5" fill="#e5e7eb" font-size="9">4</text>
<circle cx="105.4" cy="382.5" r="3" fill="#a78bfa"/>
<text x="109.4" y="378.5" fill="#e5e7eb" font-size="9">5</text>
<circle cx="105.4" cy="382.5" r="3" fill="#a78bfa"/>
<text x="109.4" y="378.5" fill="#e5e7eb" font-size="9">6</text>
<circle cx="105.5" cy="382.5" r="3" fill="#a78bfa"/>
<text x="109.5" y="378.5" fill="#e5e7eb" font-size="9">7</text>
<circle cx="106.2" cy="382.5" r="3" fill="#a78bfa"/>
<text x="110.2" y="378.5" fill="#e5e7eb" font-size="9">8</text>
<circle cx="107.1" cy="382.5" r="3" fill="#a78bfa"/>
<text x="111.1" y="378.5" fill="#e5e7eb" font-size="9">9</text>
<circle cx="600" cy="92" r="4" fill="#a78bfa"/>
<text x="610" y="96" fill="#e5e7eb">banded</text>
</svg>